<?xml version="1.0" encoding="UTF-8" standalone="no"?>
<svg width="246px" height="60px" viewBox="0 0 246 60" version="1.1" xmlns="http://www.w3.org/2000/svg" xmlns:xlink="http://www.w3.org/1999/xlink">
    <!-- Generator: Sketch 3.6 (26304) - http://www.bohemiancoding.com/sketch -->
    <title>pp_rv_hl</title>
    <desc>Created with Sketch.</desc>
    <defs>
        <path id="path-1" d="M0.0363636364,60 L245.287273,60 L245.287273,0.493939394 L0.0363636364,0.493939394 L0.0363636364,60 L0.0363636364,60 Z"></path>
    </defs>
    <g id="Page-1" stroke="none" stroke-width="1" fill="none" fill-rule="evenodd">
        <g id="pp_rv_hl">
            <g id="pp_h_1C_white">
                <path d="M190.463636,26.4290909 C189.727273,31.269697 186.029697,31.269697 182.454545,31.269697 L180.42,31.269697 L181.847273,22.2321212 C181.933333,21.6854545 182.404242,21.2830303 182.957576,21.2830303 L183.889697,21.2830303 C186.323636,21.2830303 188.62303,21.2830303 189.808485,22.669697 C190.517576,23.5 190.732121,24.7290909 190.463636,26.4290909 L190.463636,26.4290909 Z M188.907879,13.8006061 L175.422424,13.8006061 C174.500606,13.8006061 173.715758,14.4709091 173.572121,15.3818182 L168.118788,49.9593939 C168.011515,50.6418182 168.538788,51.2587879 169.229697,51.2587879 L176.148485,51.2587879 C176.793939,51.2587879 177.34303,50.7890909 177.443636,50.1515152 L178.990303,40.3484848 C179.133939,39.4375758 179.918788,38.7666667 180.840606,38.7666667 L185.107879,38.7666667 C193.990303,38.7666667 199.116364,34.4684848 200.456364,25.9484848 C201.059394,22.2224242 200.480606,19.2945455 198.735758,17.2448485 C196.818182,14.9915152 193.418788,13.8006061 188.907879,13.8006061 L188.907879,13.8006061 Z" id="Fill-1" fill="#FFFFFF"></path>
                <path d="M94.2842424,26.4290909 C93.5472727,31.269697 89.850303,31.269697 86.2751515,31.269697 L84.2406061,31.269697 L85.6672727,22.2321212 C85.7539394,21.6854545 86.2248485,21.2830303 86.7775758,21.2830303 L87.710303,21.2830303 C90.1442424,21.2830303 92.4436364,21.2830303 93.6284848,22.669697 C94.3375758,23.5 94.5527273,24.7290909 94.2842424,26.4290909 L94.2842424,26.4290909 Z M92.7284848,13.8006061 L79.2430303,13.8006061 C78.3212121,13.8006061 77.5363636,14.4709091 77.3921212,15.3818182 L71.9393939,49.9593939 C71.8321212,50.6418182 72.3593939,51.2587879 73.049697,51.2587879 L79.4884848,51.2587879 C80.410303,51.2587879 81.1951515,50.5878788 81.3393939,49.6769697 L82.810303,40.3484848 C82.9539394,39.4375758 83.7393939,38.7666667 84.6612121,38.7666667 L88.9284848,38.7666667 C97.810303,38.7666667 102.93697,34.4684848 104.27697,25.9484848 C104.88,22.2224242 104.301212,19.2945455 102.556364,17.2448485 C100.638182,14.9915152 97.2393939,13.8006061 92.7284848,13.8006061 L92.7284848,13.8006061 Z" id="Fill-2" fill="#FFFFFF"></path>
                <path d="M124.034545,38.8424242 C123.410909,42.5315152 120.481818,45.0084848 116.746061,45.0084848 C114.873333,45.0084848 113.373939,44.4060606 112.410303,43.2654545 C111.455152,42.1345455 111.095152,40.5242424 111.398182,38.730303 C111.98,35.0733333 114.955758,32.5169697 118.634545,32.5169697 C120.467879,32.5169697 121.95697,33.1248485 122.939394,34.2763636 C123.929091,35.4357576 124.317576,37.0569697 124.034545,38.8424242 L124.034545,38.8424242 Z M133.033333,26.2739394 L126.576364,26.2739394 C126.02303,26.2739394 125.552121,26.6763636 125.466061,27.2230303 L125.181818,29.0284848 L124.730303,28.3745455 C123.332121,26.3442424 120.215152,25.6666667 117.103636,25.6666667 C109.969697,25.6666667 103.875758,31.0721212 102.689697,38.6545455 C102.072121,42.4369697 102.948485,46.0515152 105.093333,48.5751515 C107.063636,50.8933333 109.875758,51.8581818 113.226061,51.8581818 C118.975758,51.8581818 122.165455,48.1636364 122.165455,48.1636364 L121.87697,49.9587879 C121.769091,50.6412121 122.296364,51.2587879 122.987273,51.2587879 L128.802424,51.2587879 C129.724242,51.2587879 130.509091,50.5878788 130.652727,49.6775758 L134.143636,27.5727273 C134.251515,26.8909091 133.724242,26.2739394 133.033333,26.2739394 L133.033333,26.2739394 Z" id="Fill-3" fill="#FFFFFF"></path>
                <path d="M220.213939,38.8424242 C219.590303,42.5315152 216.661212,45.0084848 212.926061,45.0084848 C211.052727,45.0084848 209.553939,44.4060606 208.589697,43.2654545 C207.634545,42.1345455 207.275152,40.5242424 207.578182,38.730303 C208.159394,35.0733333 211.135152,32.5169697 214.814545,32.5169697 C216.647879,32.5169697 218.13697,33.1248485 219.119394,34.2763636 C220.108485,35.4357576 220.49697,37.0569697 220.213939,38.8424242 L220.213939,38.8424242 Z M229.212727,26.2739394 L222.755758,26.2739394 C222.202424,26.2739394 221.731515,26.6763636 221.645455,27.2230303 L221.361212,29.0284848 L220.910303,28.3745455 C219.511515,26.3442424 216.395152,25.6666667 213.28303,25.6666667 C206.149697,25.6666667 200.055152,31.0721212 198.869091,38.6545455 C198.252121,42.4369697 199.127879,46.0515152 201.272727,48.5751515 C203.243636,50.8933333 206.055152,51.8581818 209.405455,51.8581818 C215.155758,51.8581818 218.344848,48.1636364 218.344848,48.1636364 L218.056364,49.9587879 C217.948485,50.6412121 218.475758,51.2587879 219.166667,51.2587879 L224.981818,51.2587879 C225.903636,51.2587879 226.688485,50.5878788 226.832727,49.6775758 L230.32303,27.5727273 C230.430909,26.8909091 229.903636,26.2739394 229.212727,26.2739394 L229.212727,26.2739394 Z" id="Fill-4" fill="#FFFFFF"></path>
                <g id="Group-10">
                    <mask id="mask-2" fill="white">
                        <use xlink:href="#path-1"></use>
                    </mask>
                    <g id="Clip-6"></g>
                    <path d="M167.424242,26.2739394 L160.933939,26.2739394 C160.313333,26.2739394 159.732727,26.5818182 159.384242,27.0957576 L150.430909,40.2812121 L146.63697,27.610303 C146.399394,26.8175758 145.670303,26.2739394 144.842424,26.2739394 L138.462424,26.2739394 C137.692121,26.2739394 137.149697,27.0321212 137.398182,27.7612121 L144.544848,48.7381818 L137.82303,58.2224242 C137.295152,58.9666667 137.827879,59.9963636 138.74,59.9963636 L145.224242,59.9963636 C145.838788,59.9963636 146.413939,59.6951515 146.763636,59.190303 L168.348485,28.0387879 C168.864848,27.2933333 168.331515,26.2739394 167.424242,26.2739394" id="Fill-5" fill="#FFFFFF" mask="url(#mask-2)"></path>
                    <path d="M236.823636,14.749697 L231.289091,49.96 C231.181818,50.6418182 231.709091,51.2587879 232.399394,51.2587879 L237.965455,51.2587879 C238.887879,51.2587879 239.672727,50.5878788 239.816364,49.6769697 L245.273333,15.0993939 C245.381212,14.4175758 244.853939,13.8006061 244.16303,13.8006061 L237.933939,13.8006061 C237.380606,13.8006061 236.909697,14.2030303 236.823636,14.749697" id="Fill-7" fill="#FFFFFF" mask="url(#mask-2)"></path>
                    <path d="M23.2369697,60 L13.6030303,60 C13.2139394,60 12.8460606,59.830303 12.5927273,59.5339394 C12.34,59.2381818 12.2290909,58.8478788 12.289697,58.4636364 L13.0787879,53.4612121 L13.090303,53.390303 L13.0284848,53.390303 L18.9739394,15.6890909 C19.0963636,14.9145455 19.5933333,14.2806061 20.2624242,13.96 C20.5666667,13.8139394 20.9066667,13.7333333 21.2630303,13.7333333 L35.7751515,13.7333333 C37.4939394,13.7333333 39.0969697,13.8454545 40.5624242,14.0818182 C40.9812121,14.1490909 41.3890909,14.2266667 41.7848485,14.3145455 C42.1806061,14.4024242 42.5648485,14.5006061 42.9369697,14.6090909 C43.1230303,14.6636364 43.3060606,14.7206061 43.4860606,14.7806061 C44.1836364,15.0121212 44.8345455,15.2842424 45.4357576,15.5981818 C44.8345455,15.2842424 44.1836364,15.0121212 43.4860606,14.7806061 C43.3060606,14.7206061 43.1230303,14.6636364 42.9369697,14.6090909 C42.5648485,14.5006061 42.1806061,14.4024242 41.7848485,14.3145455 C41.3890909,14.2266667 40.9812121,14.1490909 40.5624242,14.0818182 C39.0969697,13.8454545 37.4939394,13.7333333 35.7751515,13.7333333 L21.2630303,13.7333333 C20.9066667,13.7333333 20.5666667,13.8139394 20.2624242,13.96 C19.5933333,14.2806061 19.0963636,14.9145455 18.9739394,15.6890909 L15.889697,35.2460606 L15.8006061,35.8169697 C16.0042424,34.529697 17.1042424,33.5812121 18.4078788,33.5812121 L23.84,33.5812121 C34.5084848,33.5812121 42.8618182,29.2466667 45.3030303,16.7121212 C45.3709091,16.3630303 45.4290909,16.0242424 45.4824242,15.6915152 C46.5236364,16.2460606 47.3993939,16.9224242 48.0836364,17.7018182 C49.2193939,18.9969697 49.9490909,20.6139394 50.2527273,22.509697 C50.5406061,24.3042424 50.4545455,26.4024242 49.9975758,28.7460606 C49.4806061,31.4018182 48.6345455,33.7272727 47.4830303,35.6581818 C46.3915152,37.489697 44.9957576,39.0169697 43.3333333,40.1987879 C40.2963636,42.3587879 36.2412121,43.4539394 31.2818182,43.4539394 L29.8406061,43.4539394 C28.6630303,43.4539394 27.6757576,44.2981818 27.4921212,45.4593939 L27.3751515,46.0975758 L25.56,57.6036364 L25.4654545,58.0951515 C25.2915152,59.1987879 24.3539394,60 23.2369697,60" id="Fill-8" fill="#FFFFFF" mask="url(#mask-2)"></path>
                    <path d="M18.9739394,15.6890909 C19.0963636,14.9145455 19.5933333,14.2806061 20.2624242,13.96 C20.5666667,13.8139394 20.9066667,13.7333333 21.2630303,13.7333333 L35.7751515,13.7333333 C37.4939394,13.7333333 39.0969697,13.8454545 40.5624242,14.0818182 C40.9812121,14.1490909 41.3890909,14.2266667 41.7848485,14.3145455 C42.1806061,14.4024242 42.5648485,14.5006061 42.9369697,14.6090909 C43.1230303,14.6636364 43.3060606,14.7206061 43.4860606,14.7806061 C44.2054545,15.0193939 44.8757576,15.3012121 45.4921212,15.6278788 C46.2187879,10.9939394 45.4872727,7.84121212 42.9812121,4.98545455 C40.2218182,1.84121212 35.2363636,0.493939394 28.8587879,0.493939394 L10.3454545,0.493939394 C9.04181818,0.493939394 7.93212121,1.44242424 7.72909091,2.73030303 L0.02,51.6145455 C-0.132121212,52.5793939 0.613333333,53.4515152 1.58969697,53.4515152 L13.0187879,53.4515152 L18.9739394,15.6890909" id="Fill-9" fill="#FFFFFF" mask="url(#mask-2)"></path>
                </g>
                <path d="M45.4824242,15.6915152 C45.4757576,15.6878788 45.469697,15.6848485 45.4636364,15.6812121 L45.42,15.6569697 L45.4278788,15.6454545 L45.4321212,15.6181818 C45.4333333,15.6115152 45.4345455,15.6048485 45.4357576,15.5981818 C45.4545455,15.6078788 45.4733333,15.6175758 45.4921212,15.6278788 C45.4890909,15.6490909 45.4854545,15.670303 45.4824242,15.6915152" id="Fill-11" fill="#FFFFFF"></path>
                <path d="M15.8006061,35.8169697 L15.889697,35.2460606 L18.9739394,15.6890909 C19.0963636,14.9145455 19.5933333,14.2806061 20.2624242,13.96 C20.5666667,13.8139394 20.9066667,13.7333333 21.2630303,13.7333333 L35.7751515,13.7333333 C37.4939394,13.7333333 39.0969697,13.8454545 40.5624242,14.0818182 C40.9812121,14.1490909 41.3890909,14.2266667 41.7848485,14.3145455 C42.1806061,14.4024242 42.5648485,14.5006061 42.9369697,14.6090909 C43.1230303,14.6636364 43.3060606,14.7206061 43.4860606,14.7806061 C44.1836364,15.0121212 44.8345455,15.2842424 45.4357576,15.5981818 C45.4345455,15.6048485 45.4333333,15.6115152 45.4321212,15.6181818 L45.4278788,15.6454545 L45.42,15.6569697 L45.4636364,15.6812121 C45.469697,15.6848485 45.4757576,15.6878788 45.4824242,15.6915152 C45.4290909,16.0242424 45.3709091,16.3630303 45.3030303,16.7121212 C42.8618182,29.2466667 34.5084848,33.5812121 23.84,33.5812121 L18.4078788,33.5812121 C17.1042424,33.5812121 16.0042424,34.529697 15.8006061,35.8169697" id="Fill-12" fill="#FFFFFF"></path>
            </g>
        </g>
    </g>
</svg>